<svg viewBox="0 0 125 125" xmlns="http://www.w3.org/2000/svg" fill-rule="evenodd" clip-rule="evenodd" stroke-linejoin="round" stroke-miterlimit="2"><path d="M106.25 7.813h-87.5c-6.03 0-10.938 4.907-10.938 10.937l.001 87.5c0 6.03 4.907 10.938 10.937 10.938h87.5c6.03 0 10.938-4.908 10.938-10.938v-87.5c0-6.03-4.908-10.938-10.938-10.938zm-6.396 36.329c-.342 7.69-5.713 18.237-16.114 31.591-10.742 13.965-19.848 20.948-27.27 20.948-4.615 0-8.496-4.248-11.695-12.769-6.225-22.778-8.886-36.133-14.013-36.133-.586 0-2.661 1.245-6.201 3.711l-3.711-4.785c9.106-8.008 17.797-16.894 23.242-17.383 6.152-.586 9.936 3.614 11.352 12.622 5.054 32.032 7.3 36.866 16.504 22.364 3.296-5.225 5.078-9.204 5.323-11.939.854-8.105-6.324-7.544-11.182-5.469 3.882-12.719 11.304-18.896 22.265-18.554 8.13.219 11.963 5.493 11.5 15.796z" fill="#fff" fill-rule="nonzero"/></svg>