<svg viewBox="0 0 142 125" xmlns="http://www.w3.org/2000/svg" fill-rule="evenodd" clip-rule="evenodd" stroke-linejoin="round" stroke-miterlimit="2"><path d="M134.714 30.294c-1.533-5.774-6.052-10.322-11.788-11.865-10.398-2.804-52.093-2.804-52.093-2.804s-41.694 0-52.092 2.804C13.004 19.973 8.486 24.52 6.953 30.294 4.167 40.759 4.167 62.595 4.167 62.595s0 21.835 2.786 32.301c1.533 5.774 6.051 10.132 11.788 11.675 10.398 2.804 52.092 2.804 52.092 2.804s41.695 0 52.093-2.804c5.736-1.543 10.255-5.901 11.788-11.675C137.5 84.43 137.5 62.595 137.5 62.595s0-21.836-2.786-32.301zM57.197 82.42V42.77l34.848 19.825L57.197 82.42z" fill="#fff" fill-rule="nonzero"/></svg>