<svg viewBox="0 0 142 125" xmlns="http://www.w3.org/2000/svg" fill-rule="evenodd" clip-rule="evenodd" stroke-linejoin="round" stroke-miterlimit="2"><path d="M120.484 37.04c.08 1.11.08 2.221.08 3.331 0 33.868-25.777 72.89-72.89 72.89-14.515 0-27.998-4.203-39.34-11.5 2.062.238 4.044.317 6.186.317 11.976 0 23.001-4.045 31.805-10.945-11.262-.238-20.701-7.614-23.953-17.767 1.587.238 3.173.397 4.839.397 2.3 0 4.6-.318 6.741-.873C22.214 70.511 13.41 60.2 13.41 47.748v-.318a25.786 25.786 0 0011.579 3.252c-6.9-4.6-11.421-12.452-11.421-21.336 0-4.758 1.269-9.121 3.49-12.928 12.611 15.546 31.567 25.698 52.823 26.809-.396-1.904-.634-3.887-.634-5.87 0-14.118 11.421-25.618 25.619-25.618a25.557 25.557 0 0118.718 8.09 50.41 50.41 0 0016.259-6.187c-1.903 5.949-5.948 10.946-11.262 14.118 5.155-.555 10.152-1.983 14.752-3.965a55.066 55.066 0 01-12.849 13.245z" fill="#fff" fill-rule="nonzero"/></svg>