<svg viewBox="0 0 134 125" xmlns="http://www.w3.org/2000/svg" fill-rule="evenodd" clip-rule="evenodd" stroke-linejoin="round" stroke-miterlimit="2"><path d="M66.679 34.424c-15.527 0-28.052 12.524-28.052 28.052 0 15.527 12.525 28.051 28.052 28.051s28.052-12.524 28.052-28.051c0-15.528-12.525-28.052-28.052-28.052zm0 46.289c-10.034 0-18.237-8.179-18.237-18.237 0-10.059 8.178-18.238 18.237-18.238 10.058 0 18.237 8.179 18.237 18.238 0 10.058-8.203 18.237-18.237 18.237zm35.742-47.437a6.528 6.528 0 01-6.543 6.543 6.527 6.527 0 01-6.543-6.543 6.544 6.544 0 0113.086 0zM121 39.917c-.415-8.765-2.417-16.528-8.838-22.925-6.396-6.396-14.16-8.398-22.925-8.838-9.033-.512-36.108-.512-45.141 0-8.74.415-16.504 2.417-22.925 8.814-6.421 6.396-8.398 14.16-8.838 22.925-.513 9.033-.513 36.108 0 45.141.415 8.765 2.417 16.529 8.838 22.925 6.421 6.396 14.16 8.398 22.925 8.838 9.033.513 36.108.513 45.141 0 8.765-.415 16.529-2.417 22.925-8.838 6.397-6.396 8.399-14.16 8.838-22.925.513-9.033.513-36.084 0-45.117zm-11.67 54.81c-1.904 4.785-5.591 8.471-10.4 10.4-7.202 2.856-24.292 2.197-32.251 2.197-7.959 0-25.073.635-32.251-2.197-4.785-1.904-8.472-5.591-10.4-10.4-2.857-7.203-2.198-24.292-2.198-32.251 0-7.959-.635-25.074 2.198-32.251 1.904-4.786 5.59-8.472 10.4-10.401 7.202-2.856 24.292-2.197 32.251-2.197 7.959 0 25.073-.635 32.251 2.197 4.785 1.905 8.472 5.591 10.4 10.401 2.857 7.202 2.198 24.292 2.198 32.251 0 7.959.659 25.073-2.198 32.251z" fill="#fff" fill-rule="nonzero"/></svg>