<?xml version="1.0" encoding="UTF-8" standalone="no"?><svg width="100%" height="100%" viewBox="0 0 142 125" version="1.1" xmlns="http://www.w3.org/2000/svg" xmlns:xlink="http://www.w3.org/1999/xlink" xml:space="preserve" xmlns:serif="http://www.serif.com/" style="fill-rule:evenodd;clip-rule:evenodd;stroke-linejoin:round;stroke-miterlimit:2;"><path d="M120.484,37.04c0.08,1.11 0.08,2.221 0.08,3.331c-0,33.868 -25.777,72.89 -72.89,72.89c-14.515,0 -27.998,-4.203 -39.34,-11.5c2.062,0.238 4.044,0.317 6.186,0.317c11.976,0 23.001,-4.045 31.805,-10.945c-11.262,-0.238 -20.701,-7.614 -23.953,-17.767c1.587,0.238 3.173,0.397 4.839,0.397c2.3,-0 4.6,-0.318 6.741,-0.873c-11.738,-2.379 -20.542,-12.69 -20.542,-25.142l-0,-0.318c3.41,1.904 7.376,3.094 11.579,3.252c-6.9,-4.6 -11.421,-12.452 -11.421,-21.336c0,-4.758 1.269,-9.121 3.49,-12.928c12.611,15.546 31.567,25.698 52.823,26.809c-0.396,-1.904 -0.634,-3.887 -0.634,-5.87c-0,-14.118 11.421,-25.618 25.619,-25.618c7.376,-0 14.038,3.093 18.718,8.09c5.79,-1.11 11.342,-3.252 16.259,-6.187c-1.903,5.949 -5.948,10.946 -11.262,14.118c5.155,-0.555 10.152,-1.983 14.752,-3.965c-3.489,5.076 -7.852,9.596 -12.849,13.245Z" style="fill:#fff;fill-rule:nonzero;"/></svg>