<?xml version="1.0" encoding="UTF-8" standalone="no"?><svg width="100%" height="100%" viewBox="0 0 125 125" version="1.1" xmlns="http://www.w3.org/2000/svg" xmlns:xlink="http://www.w3.org/1999/xlink" xml:space="preserve" xmlns:serif="http://www.serif.com/" style="fill-rule:evenodd;clip-rule:evenodd;stroke-linejoin:round;stroke-miterlimit:2;"><path d="M123.047,62.5c-0,-33.447 -27.1,-60.547 -60.547,-60.547c-33.447,0 -60.547,27.1 -60.547,60.547c0,30.22 22.141,55.269 51.087,59.814l-0,-42.312l-15.381,0l-0,-17.502l15.381,0l-0,-13.34c-0,-15.173 9.033,-23.555 22.868,-23.555c6.626,0 13.555,1.182 13.555,1.182l-0,14.893l-7.637,-0c-7.519,-0 -9.866,4.668 -9.866,9.455l0,11.365l16.792,0l-2.685,17.502l-14.107,0l0,42.312c28.946,-4.545 51.087,-29.594 51.087,-59.814Z" style="fill:#fff;fill-rule:nonzero;"/></svg>