<?xml version="1.0" encoding="UTF-8" standalone="no"?><!DOCTYPE svg PUBLIC "-//W3C//DTD SVG 1.1//EN" "http://www.w3.org/Graphics/SVG/1.1/DTD/svg11.dtd"><svg width="100%" height="100%" viewBox="0 0 142 125" version="1.1" xmlns="http://www.w3.org/2000/svg" xmlns:xlink="http://www.w3.org/1999/xlink" xml:space="preserve" xmlns:serif="http://www.serif.com/" style="fill-rule:evenodd;clip-rule:evenodd;stroke-linejoin:round;stroke-miterlimit:2;"><path d="M134.714,30.294c-1.533,-5.774 -6.052,-10.322 -11.788,-11.865c-10.398,-2.804 -52.093,-2.804 -52.093,-2.804c0,0 -41.694,0 -52.092,2.804c-5.737,1.544 -10.255,6.091 -11.788,11.865c-2.786,10.465 -2.786,32.301 -2.786,32.301c-0,-0 -0,21.835 2.786,32.301c1.533,5.774 6.051,10.132 11.788,11.675c10.398,2.804 52.092,2.804 52.092,2.804c0,0 41.695,0 52.093,-2.804c5.736,-1.543 10.255,-5.901 11.788,-11.675c2.786,-10.466 2.786,-32.301 2.786,-32.301c0,-0 0,-21.836 -2.786,-32.301Zm-77.517,52.126l-0,-39.65l34.848,19.825l-34.848,19.825Z" style="fill:#fff;fill-rule:nonzero;"/></svg>