<?xml version="1.0" encoding="UTF-8" standalone="no"?><svg width="100%" height="100%" viewBox="0 0 125 125" version="1.1" xmlns="http://www.w3.org/2000/svg" xmlns:xlink="http://www.w3.org/1999/xlink" xml:space="preserve" xmlns:serif="http://www.serif.com/" style="fill-rule:evenodd;clip-rule:evenodd;stroke-linejoin:round;stroke-miterlimit:2;"><path d="M106.25,7.813l-87.5,-0c-6.03,-0 -10.938,4.907 -10.938,10.937l0.001,87.5c-0,6.03 4.907,10.938 10.937,10.938l87.5,-0c6.03,-0 10.938,-4.908 10.938,-10.938l-0,-87.5c-0,-6.03 -4.908,-10.938 -10.938,-10.938Zm-6.396,36.329c-0.342,7.69 -5.713,18.237 -16.114,31.591c-10.742,13.965 -19.848,20.948 -27.27,20.948c-4.615,-0 -8.496,-4.248 -11.695,-12.769c-6.225,-22.778 -8.886,-36.133 -14.013,-36.133c-0.586,0 -2.661,1.245 -6.201,3.711l-3.711,-4.785c9.106,-8.008 17.797,-16.894 23.242,-17.383c6.152,-0.586 9.936,3.614 11.352,12.622c5.054,32.032 7.3,36.866 16.504,22.364c3.296,-5.225 5.078,-9.204 5.323,-11.939c0.854,-8.105 -6.324,-7.544 -11.182,-5.469c3.882,-12.719 11.304,-18.896 22.265,-18.554c8.13,0.219 11.963,5.493 11.5,15.796Z" style="fill:#fff;fill-rule:nonzero;"/></svg>